HIERARCHY
ROOT Hips
{
	OFFSET 0.000000 121.760803 0.000000
	CHANNELS 6 Xposition Yposition Zposition Xrotation Yrotation Zrotation 
	JOINT Spine
	{
		OFFSET 0.072000 7.257294 -0.789700
		CHANNELS 3 Xrotation Yrotation Zrotation
		JOINT Spine1
		{
			OFFSET 0.000000 12.508769 -0.658067
			CHANNELS 3 Xrotation Yrotation Zrotation
			JOINT Spine1_split
			{
				OFFSET 0.000000 12.508769 -0.658067
				CHANNELS 3 Xrotation Yrotation Zrotation
				JOINT Spine2
				{
					OFFSET 0.000000 12.508769 -0.658067
					CHANNELS 3 Xrotation Yrotation Zrotation
					JOINT Neck
					{
						OFFSET 0.000000 14.033295 7.520400
						CHANNELS 3 Xrotation Yrotation Zrotation
						JOINT Head
						{
							OFFSET 0.000000 8.198502 5.703100
							CHANNELS 3 Xrotation Yrotation Zrotation
							JOINT HeadTop_End
							{
								OFFSET 0.000000 17.760803 13.332701
								CHANNELS 3 Xrotation Yrotation Zrotation
								End Site
								{
									OFFSET 0.000000 0.000000 0.000000
								}
							}
						}
					}
					JOINT LeftShoulder
					{
						OFFSET 6.292450 5.785301 -0.669000
						CHANNELS 3 Xrotation Yrotation Zrotation
						JOINT LeftShoulder_split
						{
							OFFSET 6.292450 5.785301 -0.669000
							CHANNELS 3 Xrotation Yrotation Zrotation
							JOINT LeftArm
							{
								OFFSET 13.907140 -6.093903 1.965100
								CHANNELS 3 Xrotation Yrotation Zrotation
								JOINT LeftForeArm
								{
									OFFSET 34.140198 0.000000 0.000000
									CHANNELS 3 Xrotation Yrotation Zrotation
									JOINT LeftHand
									{
										OFFSET 40.960209 0.000000 0.000000
										CHANNELS 3 Xrotation Yrotation Zrotation
										JOINT LeftHandThumb1
										{
											OFFSET 10.006996 -7.170425 9.573125
											CHANNELS 3 Xrotation Yrotation Zrotation
											JOINT LeftHandThumb2
											{
												OFFSET 1.835007 -1.059448 1.059443
												CHANNELS 3 Xrotation Yrotation Zrotation
												JOINT LeftHandThumb3
												{
													OFFSET 2.112267 -1.219513 1.219518
													CHANNELS 3 Xrotation Yrotation Zrotation
													JOINT LeftHandThumb4
													{
														OFFSET 4.843811 -2.796570 2.796576
														CHANNELS 3 Xrotation Yrotation Zrotation
														End Site
														{
															OFFSET 0.000000 0.000000 0.000000
														}
													}
												}
											}
										}
										JOINT LeftHandIndex1
										{
											OFFSET 18.389847 -0.922348 4.596882
											CHANNELS 3 Xrotation Yrotation Zrotation
											JOINT LeftHandIndex2
											{
												OFFSET 4.711273 0.000000 0.000000
												CHANNELS 3 Xrotation Yrotation Zrotation
												JOINT LeftHandIndex3
												{
													OFFSET 2.886131 0.000000 0.000000
													CHANNELS 3 Xrotation Yrotation Zrotation
													JOINT LeftHandIndex4
													{
														OFFSET 6.145912 0.000000 0.000000
														CHANNELS 3 Xrotation Yrotation Zrotation
														End Site
														{
															OFFSET 0.000000 0.000000 0.000000
														}
													}
												}
											}
										}
										JOINT LeftHandMiddle1
										{
											OFFSET 18.013008 0.000000 0.000000
											CHANNELS 3 Xrotation Yrotation Zrotation
											JOINT LeftHandMiddle2
											{
												OFFSET 4.946693 0.000000 0.000000
												CHANNELS 3 Xrotation Yrotation Zrotation
												JOINT LeftHandMiddle3
												{
													OFFSET 3.342232 0.000000 0.000000
													CHANNELS 3 Xrotation Yrotation Zrotation
													JOINT LeftHandMiddle4
													{
														OFFSET 4.461754 0.000000 0.000000
														CHANNELS 3 Xrotation Yrotation Zrotation
														End Site
														{
															OFFSET 0.000000 0.000000 0.000000
														}
													}
												}
											}
										}
										JOINT LeftHandRing1
										{
											OFFSET 15.849892 -0.102921 -4.126150
											CHANNELS 3 Xrotation Yrotation Zrotation
											JOINT LeftHandRing2
											{
												OFFSET 3.527054 0.000000 0.000000
												CHANNELS 3 Xrotation Yrotation Zrotation
												JOINT LeftHandRing3
												{
													OFFSET 2.961098 0.000000 0.000000
													CHANNELS 3 Xrotation Yrotation Zrotation
													JOINT LeftHandRing4
													{
														OFFSET 4.927200 0.000000 0.000000
														CHANNELS 3 Xrotation Yrotation Zrotation
														End Site
														{
															OFFSET 0.000000 0.000000 0.000000
														}
													}
												}
											}
										}
										JOINT LeftHandPinky1
										{
											OFFSET 12.791824 -0.832031 -6.799156
											CHANNELS 3 Xrotation Yrotation Zrotation
											JOINT LeftHandPinky2
											{
												OFFSET 3.327133 0.000000 0.000000
												CHANNELS 3 Xrotation Yrotation Zrotation
												JOINT LeftHandPinky3
												{
													OFFSET 3.014900 0.000000 0.000000
													CHANNELS 3 Xrotation Yrotation Zrotation
													JOINT LeftHandPinky4
													{
														OFFSET 5.847786 0.000000 0.000000
														CHANNELS 3 Xrotation Yrotation Zrotation
														End Site
														{
															OFFSET 0.000000 0.000000 0.000000
														}
													}
												}
											}
										}
									}
								}
							}
						}
					}
					JOINT RightShoulder
					{
						OFFSET -6.292450 5.785301 -0.669000
						CHANNELS 3 Xrotation Yrotation Zrotation
						JOINT RightShoulder_split
						{
							OFFSET -6.292450 5.785301 -0.669000
							CHANNELS 3 Xrotation Yrotation Zrotation
							JOINT RightArm
							{
								OFFSET -13.907140 -6.093903 1.965100
								CHANNELS 3 Xrotation Yrotation Zrotation
								JOINT RightForeArm
								{
									OFFSET -34.140198 0.000000 0.000000
									CHANNELS 3 Xrotation Yrotation Zrotation
									JOINT RightHand
									{
										OFFSET -40.960209 0.000000 0.000000
										CHANNELS 3 Xrotation Yrotation Zrotation
										JOINT RightHandThumb1
										{
											OFFSET -10.007050 -7.170456 9.573117
											CHANNELS 3 Xrotation Yrotation Zrotation
											JOINT RightHandThumb2
											{
												OFFSET -1.835007 -1.059448 1.059443
												CHANNELS 3 Xrotation Yrotation Zrotation
												JOINT RightHandThumb3
												{
													OFFSET -2.112267 -1.219513 1.219518
													CHANNELS 3 Xrotation Yrotation Zrotation
													JOINT RightHandThumb4
													{
														OFFSET -4.843834 -2.796585 2.796590
														CHANNELS 3 Xrotation Yrotation Zrotation
														End Site
														{
															OFFSET 0.000000 0.000000 0.000000
														}
													}
												}
											}
										}
										JOINT RightHandIndex1
										{
											OFFSET -18.389870 -0.922424 4.596786
											CHANNELS 3 Xrotation Yrotation Zrotation
											JOINT RightHandIndex2
											{
												OFFSET -4.711273 0.000000 0.000000
												CHANNELS 3 Xrotation Yrotation Zrotation
												JOINT RightHandIndex3
												{
													OFFSET -2.886131 0.000000 0.000000
													CHANNELS 3 Xrotation Yrotation Zrotation
													JOINT RightHandIndex4
													{
														OFFSET -6.145920 0.000000 0.000000
														CHANNELS 3 Xrotation Yrotation Zrotation
														End Site
														{
															OFFSET 0.000000 0.000000 0.000000
														}
													}
												}
											}
										}
										JOINT RightHandMiddle1
										{
											OFFSET -18.013008 0.000000 0.000000
											CHANNELS 3 Xrotation Yrotation Zrotation
											JOINT RightHandMiddle2
											{
												OFFSET -4.946693 0.000000 0.000000
												CHANNELS 3 Xrotation Yrotation Zrotation
												JOINT RightHandMiddle3
												{
													OFFSET -3.342232 0.000000 0.000000
													CHANNELS 3 Xrotation Yrotation Zrotation
													JOINT RightHandMiddle4
													{
														OFFSET -4.461754 0.000000 0.000000
														CHANNELS 3 Xrotation Yrotation Zrotation
														End Site
														{
															OFFSET 0.000000 0.000000 0.000000
														}
													}
												}
											}
										}
										JOINT RightHandRing1
										{
											OFFSET -15.849876 -0.102936 -4.126237
											CHANNELS 3 Xrotation Yrotation Zrotation
											JOINT RightHandRing2
											{
												OFFSET -3.527054 0.000000 0.000000
												CHANNELS 3 Xrotation Yrotation Zrotation
												JOINT RightHandRing3
												{
													OFFSET -2.961098 0.000000 0.000000
													CHANNELS 3 Xrotation Yrotation Zrotation
													JOINT RightHandRing4
													{
														OFFSET -4.927200 0.000000 0.000000
														CHANNELS 3 Xrotation Yrotation Zrotation
														End Site
														{
															OFFSET 0.000000 0.000000 0.000000
														}
													}
												}
											}
										}
										JOINT RightHandPinky1
										{
											OFFSET -12.791786 -0.832077 -6.799222
											CHANNELS 3 Xrotation Yrotation Zrotation
											JOINT RightHandPinky2
											{
												OFFSET -3.327133 0.000000 0.000000
												CHANNELS 3 Xrotation Yrotation Zrotation
												JOINT RightHandPinky3
												{
													OFFSET -3.014900 0.000000 0.000000
													CHANNELS 3 Xrotation Yrotation Zrotation
													JOINT RightHandPinky4
													{
														OFFSET -5.847786 0.000000 0.000000
														CHANNELS 3 Xrotation Yrotation Zrotation
														End Site
														{
															OFFSET 0.000000 0.000000 0.000000
														}
													}
												}
											}
										}
									}
								}
							}
						}
					}
				}
			}
		}
	}
	JOINT LeftUpLeg
	{
		OFFSET 13.026900 -6.336304 -1.092800
		CHANNELS 3 Xrotation Yrotation Zrotation
		JOINT LeftLeg
		{
			OFFSET 0.524474 -46.096886 9.782700
			CHANNELS 3 Xrotation Yrotation Zrotation
			JOINT LeftFoot
			{
				OFFSET -0.524474 -53.427422 -12.948200
				CHANNELS 3 Xrotation Yrotation Zrotation
				JOINT LeftToeBase
				{
					OFFSET 0.192200 -14.009700 16.364100
					CHANNELS 3 Xrotation Yrotation Zrotation
					JOINT LeftToe_End
					{
						OFFSET -1.784700 -0.561700 9.474800
						CHANNELS 3 Xrotation Yrotation Zrotation
						End Site
						{
							OFFSET 0.000000 0.000000 0.000000
						}
					}
				}
			}
		}
	}
	JOINT RightUpLeg
	{
		OFFSET -12.883000 -6.336304 -1.092800
		CHANNELS 3 Xrotation Yrotation Zrotation
		JOINT RightLeg
		{
			OFFSET -0.524587 -46.096825 9.782800
			CHANNELS 3 Xrotation Yrotation Zrotation
			JOINT RightFoot
			{
				OFFSET 0.524587 -53.427383 -12.948300
				CHANNELS 3 Xrotation Yrotation Zrotation
				JOINT RightToeBase
				{
					OFFSET -0.192200 -14.009700 16.364100
					CHANNELS 3 Xrotation Yrotation Zrotation
					JOINT RightToe_End
					{
						OFFSET 1.784700 -0.561700 9.474800
						CHANNELS 3 Xrotation Yrotation Zrotation
						End Site
						{
							OFFSET 0.000000 0.000000 0.000000
						}
					}
				}
			}
		}
	}
}
MOTION
Frames: 5
Frame Time: 0.016667
0.303843 89.258591 0.730928 11.722104 3.006992 -1.310316 9.926690 1.488755 1.214816 7.645332 0.753229 0.067568 0.000000 0.000000 0.000000 7.636951 0.840686 0.048856 -11.425861 -1.903123 7.327009 -27.420390 2.052766 -6.271737 -0.000000 -0.000000 0.000000 3.557354 -26.212550 4.772373 0.000000 0.000000 0.000000 -62.403279 -21.804182 -66.739001 -0.000024 -109.450441 -0.000005 0.778314 -4.236631 14.397165 -15.245201 10.163095 26.456292 3.939058 7.948708 0.746816 -0.579465 1.574996 2.538711 -0.000001 -0.000000 0.000000 0.000006 0.000005 0.000001 0.000008 0.000015 -0.000058 -0.000006 0.000003 -0.000046 -0.000002 0.000001 -0.000001 0.000002 -0.001920 0.015983 0.000000 0.001948 -0.016052 -0.000005 0.000004 -0.000052 0.000002 -0.000000 0.000000 0.000007 0.000007 0.000001 0.000004 0.000017 -0.000062 -0.000005 0.000007 -0.000053 -0.000001 -0.000001 -0.000000 -0.018081 4.054264 0.511060 -0.018087 -4.054241 -0.511123 0.000001 0.000003 -0.000049 0.000002 -0.000002 0.000002 1.209607 13.189587 10.689362 0.000000 0.000000 0.000000 -58.736799 43.251203 51.659863 0.000033 106.371857 -0.000006 2.773297 -4.037759 -38.887720 -6.948229 -5.049359 -29.742994 4.637201 -8.634137 -0.225412 -1.273761 0.137310 -2.094846 -0.000000 -0.000001 0.000002 -0.000006 0.000001 0.000001 0.000008 -0.000003 0.000091 -0.000005 0.000001 0.000017 0.000000 -0.000004 -0.000000 -0.000007 0.000001 0.000011 0.000013 -0.000005 0.000069 -0.000002 0.000006 0.000028 0.000000 0.000004 -0.000000 -0.000010 0.000006 0.000008 0.000012 -0.000004 0.000081 -0.000003 -0.000001 0.000025 -0.000000 -0.000001 -0.000000 -0.000008 0.000000 0.000003 0.000012 -0.000007 0.000085 -0.000006 0.000007 0.000020 0.000000 -0.000001 -0.000000 -58.768177 0.541941 5.806829 75.318012 7.396514 -0.707537 -27.104976 5.220686 -5.752244 -0.000010 0.000002 -0.000002 -0.000000 -0.000002 -0.000000 -56.233197 -13.877857 -7.341984 74.381334 -8.018284 -4.541178 -30.700280 -9.664106 4.410814 0.000003 -0.000005 -0.000002 -0.000000 -0.000000 -0.000000 
0.306384 89.262924 0.735046 11.744776 3.002511 -1.316619 9.918313 1.497301 1.206983 7.639421 0.760470 0.063173 0.000000 0.000000 0.000000 7.630965 0.847824 0.044425 -11.435390 -1.910253 7.339551 -27.433921 2.035674 -6.273736 0.000000 0.000000 -0.000000 3.557356 -26.212552 4.772373 0.000000 0.000000 0.000000 -62.419343 -21.858359 -66.778650 -0.000016 -109.501381 -0.000012 0.901621 -4.326306 14.359149 -15.245203 10.163095 26.456294 3.939055 7.948706 0.746817 -0.579461 1.574991 2.538712 0.000002 0.000001 0.000001 0.000008 0.000004 -0.000002 0.000008 0.000017 -0.000059 -0.000008 0.000006 -0.000044 -0.000001 0.000003 0.000003 0.000003 -0.001926 0.015977 0.000001 0.001947 -0.016052 -0.000003 0.000004 -0.000052 0.000001 -0.000002 -0.000002 0.000009 0.000001 -0.000002 0.000004 0.000015 -0.000063 -0.000007 0.000010 -0.000051 0.000001 -0.000000 -0.000002 -0.018081 4.054264 0.511056 -0.018088 -4.054239 -0.511123 0.000004 0.000007 -0.000048 0.000000 -0.000001 0.000001 1.208775 13.185486 10.706561 0.000000 0.000000 0.000000 -58.718494 43.222533 51.623171 -0.000005 106.496378 0.000002 2.902277 -4.000203 -38.894799 -6.948228 -5.049358 -29.742994 4.637196 -8.634131 -0.225414 -1.273763 0.137305 -2.094853 0.000000 -0.000004 -0.000001 -0.000006 0.000000 0.000001 0.000008 -0.000007 0.000091 -0.000005 0.000007 0.000018 -0.000000 0.000002 -0.000000 -0.000007 0.000001 0.000012 0.000013 -0.000010 0.000069 -0.000002 0.000006 0.000027 -0.000000 -0.000004 0.000000 -0.000009 0.000007 0.000009 0.000012 -0.000007 0.000081 -0.000003 -0.000001 0.000025 -0.000000 0.000002 0.000000 -0.000008 -0.000002 0.000004 0.000013 -0.000008 0.000085 -0.000006 0.000006 0.000020 0.000000 0.000002 0.000000 -58.786093 0.530785 5.829109 75.317500 7.391848 -0.736248 -27.099740 5.219843 -5.742547 -0.000010 0.000002 -0.000002 -0.000000 -0.000000 -0.000000 -56.248039 -13.882835 -7.331745 74.370173 -8.025503 -4.549285 -30.695502 -9.662800 4.417636 0.000003 -0.000007 -0.000002 0.000000 -0.000000 -0.000000 
0.309591 89.265221 0.740149 11.765375 2.996978 -1.327378 9.909496 1.508579 1.200906 7.633178 0.769256 0.058698 0.000000 0.000000 0.000000 7.624625 0.856615 0.039882 -11.444189 -1.923866 7.361598 -27.436180 1.999900 -6.276385 -0.000000 -0.000000 -0.000000 3.557353 -26.212553 4.772373 0.000000 0.000000 0.000000 -62.439554 -21.913824 -66.819549 -0.000018 -109.545791 -0.000018 1.016376 -4.380403 14.319708 -15.245203 10.163095 26.456295 3.939056 7.948702 0.746815 -0.579467 1.574992 2.538711 -0.000000 -0.000003 -0.000001 0.000005 0.000004 -0.000003 0.000007 0.000017 -0.000058 -0.000008 0.000009 -0.000045 -0.000002 0.000005 0.000001 0.000000 -0.001922 0.015977 0.000001 0.001944 -0.016050 -0.000005 0.000006 -0.000055 0.000000 0.000003 0.000001 0.000006 0.000003 -0.000001 0.000007 0.000014 -0.000062 -0.000005 0.000009 -0.000056 0.000000 -0.000000 0.000001 -0.018085 4.054262 0.511056 -0.018088 -4.054236 -0.511119 0.000003 0.000001 -0.000048 0.000002 0.000003 -0.000001 1.207724 13.175772 10.734727 0.000000 0.000000 0.000000 -58.706869 43.206131 51.589655 -0.000051 106.607225 0.000050 2.994839 -3.971785 -38.906007 -6.948230 -5.049359 -29.742998 4.637199 -8.634133 -0.225412 -1.273764 0.137306 -2.094851 -0.000001 -0.000000 -0.000002 -0.000006 0.000004 0.000001 0.000008 -0.000004 0.000091 -0.000005 0.000006 0.000018 0.000000 0.000000 0.000000 -0.000007 0.000002 0.000012 0.000013 -0.000009 0.000070 -0.000003 0.000006 0.000027 0.000000 -0.000004 0.000000 -0.000010 0.000009 0.000009 0.000011 -0.000009 0.000082 -0.000003 -0.000002 0.000026 0.000000 0.000004 -0.000000 -0.000008 0.000000 0.000004 0.000012 -0.000004 0.000085 -0.000006 0.000006 0.000019 -0.000000 0.000003 0.000001 -58.804794 0.513828 5.854211 75.322875 7.384546 -0.768958 -27.093680 5.230739 -5.729543 -0.000010 0.000003 -0.000002 0.000000 -0.000000 0.000000 -56.260347 -13.891726 -7.319940 74.360966 -8.031725 -4.556229 -30.692302 -9.661705 4.424124 0.000003 -0.000005 -0.000002 -0.000000 -0.000000 0.000000 
0.313900 89.265671 0.746330 11.783792 2.990310 -1.341405 9.900444 1.523039 1.196054 7.626653 0.780095 0.054113 0.000000 0.000000 0.000000 7.617972 0.867544 0.035189 -11.454972 -1.944256 7.391726 -27.423196 1.943258 -6.281663 -0.000000 -0.000000 0.000000 3.557355 -26.212552 4.772373 0.000000 0.000000 0.000000 -62.470385 -21.974013 -66.864513 -0.000051 -109.579716 -0.000061 1.123957 -4.400894 14.281687 -15.245203 10.163094 26.456290 3.939059 7.948704 0.746817 -0.579460 1.574995 2.538712 -0.000001 0.000000 -0.000000 0.000005 0.000004 0.000000 0.000006 0.000014 -0.000057 -0.000006 0.000013 -0.000046 -0.000001 0.000001 -0.000000 0.000000 -0.001920 0.015982 0.000002 0.001948 -0.016050 -0.000004 0.000005 -0.000052 0.000000 -0.000001 -0.000001 0.000006 0.000003 0.000002 0.000005 0.000015 -0.000061 -0.000007 0.000006 -0.000053 0.000002 -0.000003 0.000002 -0.018084 4.054267 0.511058 -0.018088 -4.054239 -0.511120 0.000004 0.000000 -0.000050 -0.000000 0.000002 0.000000 1.206695 13.162150 10.768370 0.000000 0.000000 0.000000 -58.707627 43.191142 51.562713 0.000258 106.707055 -0.000255 3.052729 -3.952008 -38.913326 -6.948229 -5.049363 -29.742994 4.637199 -8.634130 -0.225413 -1.273762 0.137306 -2.094851 -0.000002 -0.000001 -0.000000 -0.000006 -0.000004 0.000002 0.000008 -0.000007 0.000091 -0.000004 0.000002 0.000017 -0.000000 0.000003 0.000000 -0.000007 -0.000003 0.000013 0.000013 -0.000009 0.000070 -0.000002 0.000001 0.000027 -0.000000 -0.000001 0.000000 -0.000009 0.000001 0.000009 0.000011 -0.000006 0.000082 -0.000003 -0.000003 0.000025 -0.000000 -0.000000 -0.000000 -0.000008 -0.000006 0.000004 0.000012 -0.000008 0.000085 -0.000006 0.000002 0.000020 0.000000 0.000000 -0.000000 -58.823741 0.496792 5.879875 75.332492 7.375201 -0.799770 -27.088131 5.249881 -5.714267 -0.000010 0.000004 -0.000002 -0.000000 0.000000 -0.000000 -56.270001 -13.902974 -7.308760 74.353781 -8.037374 -4.560682 -30.690471 -9.658893 4.430781 0.000003 -0.000007 -0.000002 -0.000000 -0.000000 0.000000 
0.319772 89.265152 0.753523 11.801162 2.982172 -1.356764 9.891582 1.540374 1.191401 7.619999 0.793059 0.049375 0.000000 0.000000 0.000000 7.611130 0.880647 0.030305 -11.470300 -1.969856 7.427052 -27.400897 1.869801 -6.289239 -0.000000 0.000000 0.000000 3.557355 -26.212548 4.772373 0.000000 0.000000 0.000000 -62.514160 -22.042332 -66.916039 0.000020 -109.608834 0.000027 1.236721 -4.410127 14.244751 -15.245208 10.163100 26.456295 3.939056 7.948704 0.746815 -0.579465 1.574997 2.538713 -0.000000 -0.000001 -0.000000 0.000004 0.000007 -0.000001 0.000008 0.000012 -0.000059 -0.000007 0.000009 -0.000047 -0.000001 0.000000 -0.000001 -0.000000 -0.001919 0.015981 -0.000000 0.001949 -0.016051 -0.000005 0.000005 -0.000054 -0.000000 0.000004 0.000003 0.000005 0.000008 -0.000000 0.000002 0.000016 -0.000062 -0.000006 0.000008 -0.000054 0.000000 -0.000000 -0.000001 -0.018085 4.054271 0.511059 -0.018085 -4.054238 -0.511117 0.000003 0.000006 -0.000051 0.000001 0.000001 -0.000000 1.205948 13.146151 10.801879 0.000000 0.000000 0.000000 -58.722688 43.168585 51.544091 -0.000108 106.809399 0.000107 3.102361 -3.933556 -38.909668 -6.948229 -5.049350 -29.742998 4.637200 -8.634130 -0.225412 -1.273760 0.137305 -2.094852 -0.000002 0.000001 -0.000001 -0.000006 0.000006 0.000001 0.000007 -0.000007 0.000091 -0.000005 0.000003 0.000017 -0.000000 -0.000000 -0.000001 -0.000008 0.000005 0.000012 0.000013 -0.000008 0.000069 -0.000003 0.000003 0.000028 -0.000000 -0.000001 0.000000 -0.000010 0.000009 0.000008 0.000011 -0.000005 0.000081 -0.000003 0.000000 0.000025 -0.000000 -0.000002 0.000001 -0.000008 0.000006 0.000004 0.000012 -0.000007 0.000086 -0.000006 0.000006 0.000020 0.000000 -0.000002 -0.000000 -58.841964 0.486047 5.903411 75.343065 7.364907 -0.822634 -27.086201 5.271897 -5.698228 -0.000010 0.000006 -0.000002 0.000000 0.000001 -0.000000 -56.278580 -13.914251 -7.300627 74.348002 -8.043367 -4.561749 -30.689990 -9.652222 4.438152 0.000003 -0.000007 -0.000002 0.000000 -0.000000 0.000000 
